<?xml version="1.0" standalone="no"?>
<!DOCTYPE svg PUBLIC "-//W3C//DTD SVG 20010904//EN"
 "http://www.w3.org/TR/2001/REC-SVG-20010904/DTD/svg10.dtd">
<svg version="1.0" xmlns="http://www.w3.org/2000/svg"
 width="96.000000pt" height="96.000000pt" viewBox="0 0 96.000000 96.000000"
 preserveAspectRatio="xMidYMid meet">
<metadata>
Created by potrace 1.14, written by Peter Selinger 2001-2017
</metadata>
<g transform="translate(0.000000,96.000000) scale(0.100000,-0.100000)"
fill="#000000" stroke="none">
<path d="M160 480 l0 -340 40 0 40 0 1 273 0 272 97 -192 97 -193 45 0 45 0
75 138 c41 75 84 154 95 176 l20 38 3 -256 2 -256 40 0 40 0 0 340 0 340 -44
0 c-42 0 -45 -2 -65 -42 -11 -24 -37 -72 -56 -108 -20 -36 -61 -111 -92 -167
-31 -57 -59 -103 -63 -103 -4 0 -53 95 -110 210 l-104 210 -53 0 -53 0 0 -340z"/>
</g>
</svg>
